<svg width="191" height="65" viewBox="0 0 191 65" fill="none" xmlns="http://www.w3.org/2000/svg">
<path d="M9.51672 18H18.4367C18.7301 18 18.8234 17.84 18.7167 17.52L13.9567 5.28L9.19672 17.6C9.11672 17.8667 9.22339 18 9.51672 18ZM5.79672 26.36C5.74339 26.52 5.71672 26.7067 5.71672 26.92C5.71672 27.1067 5.82339 27.3333 6.03672 27.6C6.25006 27.84 6.54339 27.9733 6.91672 28L7.79672 28.08C8.14339 28.1333 8.31672 28.3067 8.31672 28.6C8.31672 28.9733 8.11672 29.16 7.71672 29.16L4.23672 29L0.596722 29.16C0.223388 29.16 0.0367218 28.9867 0.0367218 28.64C0.0367218 28.2667 0.183388 28.08 0.476722 28.08L1.23672 28C2.38339 27.8667 3.15672 27.32 3.55672 26.36L13.8367 1.04C13.9434 0.719999 14.2501 0.559999 14.7567 0.559999C15.2901 0.559999 15.6234 0.719999 15.7567 1.04L25.9967 26.36C26.3434 27.3467 27.1034 27.8933 28.2767 28L29.1167 28.08C29.2234 28.08 29.3167 28.1333 29.3967 28.24C29.4767 28.3467 29.5167 28.4533 29.5167 28.56C29.5167 28.96 29.3301 29.16 28.9567 29.16L24.3567 29L20.2367 29.16C19.8634 29.16 19.6767 29 19.6767 28.68C19.6767 28.3067 19.8367 28.1067 20.1567 28.08L21.0767 28C21.4234 27.9733 21.7034 27.84 21.9167 27.6C22.1567 27.36 22.2767 27.1333 22.2767 26.92C22.2767 26.7067 22.2367 26.52 22.1567 26.36L19.7967 20.24C19.7167 19.9733 19.5034 19.84 19.1567 19.84H8.79672C8.47672 19.84 8.26339 19.9733 8.15672 20.24L5.79672 26.36ZM59.0286 13.6C60.7086 13.8133 62.2019 14.5867 63.5086 15.92C64.8419 17.2267 65.5086 18.9467 65.5086 21.08C65.5086 23.2133 64.7086 25.0667 63.1086 26.64C61.5086 28.2133 59.5219 29 57.1486 29H48.0286L43.5086 29.16C43.1353 29.16 42.9486 28.9467 42.9486 28.52C42.9486 28.2267 43.0953 28.08 43.3886 28.08L44.5486 28C45.7753 27.84 46.3886 27.2933 46.3886 26.36V3.64C46.3886 2.68 45.7753 2.14667 44.5486 2.04L43.3886 1.92C43.0953 1.86667 42.9486 1.70667 42.9486 1.44C42.9486 1.04 43.1353 0.839998 43.5086 0.839998L48.5086 0.999998H56.2686C58.3486 0.999998 60.0819 1.64 61.4686 2.92C62.8553 4.2 63.5486 5.69333 63.5486 7.4C63.5486 9.10667 63.0953 10.4667 62.1886 11.48C61.2819 12.4667 60.2286 13.1467 59.0286 13.52V13.6ZM58.4686 11.48C59.4819 10.5467 59.9886 9.30667 59.9886 7.76C59.9886 6.21333 59.4953 5 58.5086 4.12C57.5219 3.21333 56.2286 2.76 54.6286 2.76H51.2686C50.8953 2.76 50.5486 2.90667 50.2286 3.2C49.9353 3.46666 49.7886 3.74667 49.7886 4.04V12.08C49.7886 12.6133 50.0553 12.88 50.5886 12.88H54.6286C56.2019 12.88 57.4819 12.4133 58.4686 11.48ZM55.3486 27.24C57.2686 27.24 58.8419 26.6533 60.0686 25.48C61.3219 24.3067 61.9486 22.7867 61.9486 20.92C61.9486 19.0267 61.3219 17.5067 60.0686 16.36C58.8419 15.2133 57.2686 14.64 55.3486 14.64H50.4686C50.0153 14.64 49.7886 14.88 49.7886 15.36V25.64C49.7886 26.7067 50.3219 27.24 51.3886 27.24H55.3486ZM95.9345 0.559999C100.148 0.559999 103.521 1.90667 106.055 4.6C108.615 7.26667 109.895 10.7067 109.895 14.92C109.895 19.1333 108.588 22.6133 105.975 25.36C103.388 28.08 100.015 29.44 95.8545 29.44C91.7212 29.44 88.3612 28.08 85.7745 25.36C83.1879 22.64 81.8945 19.2 81.8945 15.04C81.8945 10.8533 83.1879 7.4 85.7745 4.68C88.3612 1.93333 91.7479 0.559999 95.9345 0.559999ZM103.815 6.84C103.041 5.48 101.975 4.4 100.615 3.6C99.2545 2.8 97.6679 2.4 95.8545 2.4C92.6012 2.4 90.0812 3.4 88.2945 5.4C86.5345 7.37333 85.6545 10.0667 85.6545 13.48C85.6545 17.0267 86.4545 20.2 88.0545 23C88.8279 24.3867 89.9079 25.5067 91.2945 26.36C92.6812 27.1867 94.2679 27.6 96.0545 27.6C99.2279 27.6 101.695 26.56 103.455 24.48C105.241 22.4 106.135 19.6 106.135 16.08C106.135 12.56 105.361 9.48 103.815 6.84ZM141.807 13.6C143.487 13.8133 144.98 14.5867 146.287 15.92C147.62 17.2267 148.287 18.9467 148.287 21.08C148.287 23.2133 147.487 25.0667 145.887 26.64C144.287 28.2133 142.3 29 139.927 29H130.807L126.287 29.16C125.913 29.16 125.727 28.9467 125.727 28.52C125.727 28.2267 125.873 28.08 126.167 28.08L127.327 28C128.553 27.84 129.167 27.2933 129.167 26.36V3.64C129.167 2.68 128.553 2.14667 127.327 2.04L126.167 1.92C125.873 1.86667 125.727 1.70667 125.727 1.44C125.727 1.04 125.913 0.839998 126.287 0.839998L131.287 0.999998H139.047C141.127 0.999998 142.86 1.64 144.247 2.92C145.633 4.2 146.327 5.69333 146.327 7.4C146.327 9.10667 145.873 10.4667 144.967 11.48C144.06 12.4667 143.007 13.1467 141.807 13.52V13.6ZM141.247 11.48C142.26 10.5467 142.767 9.30667 142.767 7.76C142.767 6.21333 142.273 5 141.287 4.12C140.3 3.21333 139.007 2.76 137.407 2.76H134.047C133.673 2.76 133.327 2.90667 133.007 3.2C132.713 3.46666 132.567 3.74667 132.567 4.04V12.08C132.567 12.6133 132.833 12.88 133.367 12.88H137.407C138.98 12.88 140.26 12.4133 141.247 11.48ZM138.127 27.24C140.047 27.24 141.62 26.6533 142.847 25.48C144.1 24.3067 144.727 22.7867 144.727 20.92C144.727 19.0267 144.1 17.5067 142.847 16.36C141.62 15.2133 140.047 14.64 138.127 14.64H133.247C132.793 14.64 132.567 14.88 132.567 15.36V25.64C132.567 26.7067 133.1 27.24 134.167 27.24H138.127ZM170.971 18H179.891C180.185 18 180.278 17.84 180.171 17.52L175.411 5.28L170.651 17.6C170.571 17.8667 170.678 18 170.971 18ZM167.251 26.36C167.198 26.52 167.171 26.7067 167.171 26.92C167.171 27.1067 167.278 27.3333 167.491 27.6C167.705 27.84 167.998 27.9733 168.371 28L169.251 28.08C169.598 28.1333 169.771 28.3067 169.771 28.6C169.771 28.9733 169.571 29.16 169.171 29.16L165.691 29L162.051 29.16C161.678 29.16 161.491 28.9867 161.491 28.64C161.491 28.2667 161.638 28.08 161.931 28.08L162.691 28C163.838 27.8667 164.611 27.32 165.011 26.36L175.291 1.04C175.398 0.719999 175.705 0.559999 176.211 0.559999C176.745 0.559999 177.078 0.719999 177.211 1.04L187.451 26.36C187.798 27.3467 188.558 27.8933 189.731 28L190.571 28.08C190.678 28.08 190.771 28.1333 190.851 28.24C190.931 28.3467 190.971 28.4533 190.971 28.56C190.971 28.96 190.785 29.16 190.411 29.16L185.811 29L181.691 29.16C181.318 29.16 181.131 29 181.131 28.68C181.131 28.3067 181.291 28.1067 181.611 28.08L182.531 28C182.878 27.9733 183.158 27.84 183.371 27.6C183.611 27.36 183.731 27.1333 183.731 26.92C183.731 26.7067 183.691 26.52 183.611 26.36L181.251 20.24C181.171 19.9733 180.958 19.84 180.611 19.84H170.251C169.931 19.84 169.718 19.9733 169.611 20.24L167.251 26.36ZM28.9654 46.136C30.1974 46.136 31.3094 46.416 32.3014 46.976C33.2934 47.52 34.0774 48.288 34.6534 49.28C35.2294 50.256 35.5174 51.384 35.5174 52.664C35.5174 53.944 35.2294 55.08 34.6534 56.072C34.0934 57.064 33.3174 57.84 32.3254 58.4C31.3334 58.96 30.2054 59.24 28.9414 59.24C27.9654 59.24 27.0694 59.048 26.2534 58.664C25.4374 58.28 24.7894 57.848 24.3094 57.368V58.928H21.8374V41.24H24.3094V48.152C24.7574 47.64 25.3894 47.176 26.2054 46.76C27.0374 46.344 27.9574 46.136 28.9654 46.136ZM28.6294 48.392C27.7494 48.392 26.9654 48.584 26.2774 48.968C25.5894 49.336 25.0534 49.84 24.6694 50.48C24.2854 51.12 24.0934 51.848 24.0934 52.664C24.0934 53.48 24.2854 54.216 24.6694 54.872C25.0534 55.512 25.5894 56.024 26.2774 56.408C26.9654 56.776 27.7494 56.96 28.6294 56.96C29.5094 56.96 30.2854 56.776 30.9574 56.408C31.6454 56.024 32.1814 55.512 32.5654 54.872C32.9494 54.216 33.1414 53.48 33.1414 52.664C33.1414 51.848 32.9494 51.12 32.5654 50.48C32.1814 49.84 31.6454 49.336 30.9574 48.968C30.2854 48.584 29.5094 48.392 28.6294 48.392ZM52.5657 53.312V46.4H55.0377V59H52.5657V56.888C52.1497 57.496 51.5257 58.04 50.6937 58.52C49.8777 59 48.8857 59.24 47.7177 59.24C46.2617 59.24 45.0777 58.744 44.1657 57.752C43.2697 56.744 42.8217 55.36 42.8217 53.6V46.4H45.2937V52.832C45.2937 54.064 45.5577 55.064 46.0857 55.832C46.6297 56.584 47.5097 56.96 48.7257 56.96C49.4297 56.96 50.0697 56.816 50.6457 56.528C51.2377 56.224 51.7017 55.8 52.0377 55.256C52.3897 54.712 52.5657 54.064 52.5657 53.312ZM65.1149 43.664C64.5549 43.664 64.1389 43.52 63.8669 43.232C63.5949 42.944 63.4589 42.568 63.4589 42.104C63.4589 41.704 63.5949 41.344 63.8669 41.024C64.1389 40.704 64.5549 40.544 65.1149 40.544C65.6749 40.544 66.0909 40.688 66.3629 40.976C66.6349 41.264 66.7709 41.64 66.7709 42.104C66.7709 42.504 66.6349 42.864 66.3629 43.184C66.0909 43.504 65.6749 43.664 65.1149 43.664ZM66.3629 59H63.8909V46.4H66.3629V59ZM75.2389 59V41.24H77.7109V59H75.2389ZM98.7496 41.24V59H96.2776V57.032C95.9896 57.4 95.5976 57.752 95.1016 58.088C94.6216 58.424 94.0696 58.704 93.4456 58.928C92.8216 59.136 92.1496 59.24 91.4296 59.24C90.1496 59.24 89.0056 58.96 87.9976 58.4C87.0056 57.84 86.2296 57.064 85.6696 56.072C85.1096 55.08 84.8296 53.952 84.8296 52.688C84.8296 51.408 85.1176 50.28 85.6936 49.304C86.2696 48.312 87.0536 47.536 88.0456 46.976C89.0536 46.416 90.1896 46.136 91.4536 46.136C92.5096 46.136 93.4616 46.328 94.3096 46.712C95.1576 47.096 95.8136 47.552 96.2776 48.08V41.24H98.7496ZM91.8616 57.056C92.7576 57.056 93.5416 56.864 94.2136 56.48C94.9016 56.096 95.4296 55.576 95.7976 54.92C96.1816 54.264 96.3736 53.52 96.3736 52.688C96.3736 51.856 96.1816 51.112 95.7976 50.456C95.4296 49.8 94.9016 49.288 94.2136 48.92C93.5416 48.536 92.7576 48.344 91.8616 48.344C90.9816 48.344 90.1976 48.536 89.5096 48.92C88.8376 49.288 88.3096 49.8 87.9256 50.456C87.5416 51.112 87.3496 51.856 87.3496 52.688C87.3496 53.52 87.5416 54.264 87.9256 54.92C88.3096 55.576 88.8376 56.096 89.5096 56.48C90.1976 56.864 90.9816 57.056 91.8616 57.056ZM108.605 43.664C108.045 43.664 107.629 43.52 107.357 43.232C107.085 42.944 106.949 42.568 106.949 42.104C106.949 41.704 107.085 41.344 107.357 41.024C107.629 40.704 108.045 40.544 108.605 40.544C109.165 40.544 109.581 40.688 109.853 40.976C110.125 41.264 110.261 41.64 110.261 42.104C110.261 42.504 110.125 42.864 109.853 43.184C109.581 43.504 109.165 43.664 108.605 43.664ZM109.853 59H107.381V46.4H109.853V59ZM125.905 46.136C127.121 46.136 128.089 46.376 128.809 46.856C129.545 47.336 130.073 47.976 130.393 48.776C130.729 49.56 130.897 50.44 130.897 51.416V59H128.425V51.68C128.425 50.72 128.153 49.928 127.609 49.304C127.065 48.68 126.257 48.384 125.185 48.416C124.433 48.416 123.761 48.584 123.169 48.92C122.593 49.24 122.137 49.656 121.801 50.168C121.465 50.68 121.297 51.208 121.297 51.752V59H118.825V46.4H121.297V48.512C121.777 47.888 122.417 47.336 123.217 46.856C124.017 46.376 124.913 46.136 125.905 46.136ZM141.233 61.04C141.729 61.36 142.369 61.648 143.153 61.904C143.937 62.176 144.793 62.312 145.721 62.312C147.049 62.312 148.097 61.96 148.865 61.256C149.649 60.552 150.041 59.512 150.041 58.136V56.912C149.785 57.296 149.401 57.672 148.889 58.04C148.393 58.392 147.809 58.68 147.137 58.904C146.465 59.128 145.753 59.24 145.001 59.24C143.705 59.24 142.553 58.96 141.545 58.4C140.553 57.84 139.769 57.064 139.193 56.072C138.617 55.08 138.329 53.952 138.329 52.688C138.329 51.408 138.625 50.28 139.217 49.304C139.809 48.312 140.609 47.536 141.617 46.976C142.641 46.416 143.809 46.136 145.121 46.136C146.225 46.136 147.209 46.352 148.073 46.784C148.953 47.216 149.609 47.68 150.041 48.176V46.4H152.513V57.848C152.513 59.416 152.193 60.688 151.553 61.664C150.913 62.64 150.073 63.36 149.033 63.824C148.009 64.288 146.905 64.52 145.721 64.52C144.585 64.52 143.545 64.376 142.601 64.088C141.657 63.8 140.905 63.44 140.345 63.008L141.233 61.04ZM145.553 48.392C144.641 48.392 143.825 48.584 143.105 48.968C142.401 49.336 141.849 49.848 141.449 50.504C141.049 51.144 140.849 51.872 140.849 52.688C140.849 53.504 141.049 54.232 141.449 54.872C141.849 55.512 142.401 56.024 143.105 56.408C143.825 56.776 144.641 56.96 145.553 56.96C146.449 56.96 147.241 56.776 147.929 56.408C148.617 56.04 149.153 55.536 149.537 54.896C149.937 54.24 150.137 53.504 150.137 52.688C150.137 51.856 149.937 51.12 149.537 50.48C149.153 49.84 148.617 49.336 147.929 48.968C147.241 48.584 146.449 48.392 145.553 48.392ZM169.104 49.76C168.56 49.312 167.92 48.936 167.184 48.632C166.448 48.328 165.76 48.176 165.12 48.176C164.704 48.176 164.272 48.216 163.824 48.296C163.392 48.376 163.024 48.528 162.72 48.752C162.416 48.96 162.264 49.272 162.264 49.688C162.264 50.072 162.416 50.384 162.72 50.624C163.024 50.848 163.424 51.032 163.92 51.176C164.432 51.32 164.992 51.456 165.6 51.584C166.208 51.712 166.8 51.864 167.376 52.04C167.968 52.2 168.496 52.424 168.96 52.712C169.44 52.984 169.824 53.336 170.112 53.768C170.4 54.184 170.544 54.712 170.544 55.352C170.544 56.184 170.296 56.888 169.8 57.464C169.32 58.04 168.68 58.48 167.88 58.784C167.096 59.088 166.24 59.24 165.312 59.24C164.176 59.24 163.096 59.072 162.072 58.736C161.048 58.384 160.184 57.792 159.48 56.96L161.16 55.472C161.672 56 162.264 56.424 162.936 56.744C163.624 57.048 164.424 57.2 165.336 57.2C165.736 57.2 166.152 57.152 166.584 57.056C167.016 56.96 167.384 56.8 167.688 56.576C167.992 56.336 168.144 56.008 168.144 55.592C168.144 55.224 167.992 54.928 167.688 54.704C167.384 54.48 166.976 54.304 166.464 54.176C165.952 54.032 165.4 53.904 164.808 53.792C163.944 53.6 163.128 53.376 162.36 53.12C161.592 52.848 160.968 52.456 160.488 51.944C160.024 51.416 159.792 50.688 159.792 49.76C159.792 49.024 160.024 48.384 160.488 47.84C160.968 47.296 161.608 46.88 162.408 46.592C163.208 46.288 164.088 46.136 165.048 46.136C165.656 46.136 166.296 46.208 166.968 46.352C167.64 46.48 168.28 46.696 168.888 47C169.512 47.288 170.04 47.672 170.472 48.152L169.104 49.76Z" fill="white"/>
</svg>
